# xmcd
#
# Track frame offsets: 
#        150
#        14644
#        27635
#        44437
#        60188
#        76209
#        93352
#        107170
#        120249
#        137299
#        150995
#        168841
#        187498
#        203759
#
# Disc length: 2914 seconds
#
# Revision: 0
# Processed by: cddbd v1.5.2PL0 Copyright (c) Steve Scherf et al.
# Submitted via: ExactAudioCopy v0.99pb5
#
DISCID=ac0b600e
DTITLE=Rick Hertless - Whine Wheels Whine
DYEAR=2001
DGENRE=Country
TTITLE0=Whine Wheels Whine
TTITLE1=Whiskey Nights
TTITLE2=Lorey Lorey
TTITLE3=Angel Eyes
TTITLE4=Heaven
TTITLE5=You Are What Love Means To Me
TTITLE6=Go Make Your Way
TTITLE7=Those Sad Country Songs
TTITLE8=It´s Still Love
TTITLE9=Friends
TTITLE10=My Loving Wife
TTITLE11=Goodbye
TTITLE12=Ten Years Ago (bonus track)
TTITLE13=Dreams In My Heart (bonus track)
EXTD=
EXTT0=
EXTT1=
EXTT2=
EXTT3=
EXTT4=
EXTT5=
EXTT6=
EXTT7=
EXTT8=
EXTT9=
EXTT10=
EXTT11=
EXTT12=
EXTT13=
PLAYORDER=
